<svg xmlns="http://www.w3.org/2000/svg" viewBox="0 0 1024 1024" role="img" aria-labelledby="title desc">
  <title id="title">Aether crystal mark</title>
  <desc id="desc">A faceted icy hexagonal crystal with a luminous spiraling aperture core.</desc>
  <defs>
    <radialGradient id="crystalBody" cx="40%" cy="30%" r="74%">
      <stop offset="0" stop-color="#ffffff"/>
      <stop offset="0.34" stop-color="#f5fcff" stop-opacity="0.96"/>
      <stop offset="0.66" stop-color="#dcf0fc" stop-opacity="0.82"/>
      <stop offset="1" stop-color="#a9d2ee" stop-opacity="0.46"/>
    </radialGradient>
    <radialGradient id="hollow" cx="50%" cy="50%" r="55%">
      <stop offset="0" stop-color="#dff2fd" stop-opacity="0.42"/>
      <stop offset="0.5" stop-color="#f4fbff" stop-opacity="0.5"/>
      <stop offset="1" stop-color="#ffffff" stop-opacity="0.85"/>
    </radialGradient>
    <linearGradient id="facetStroke" x1="218" y1="190" x2="812" y2="817" gradientUnits="userSpaceOnUse">
      <stop offset="0" stop-color="#ffffff" stop-opacity="0.92"/>
      <stop offset="0.45" stop-color="#9bd3f3" stop-opacity="0.58"/>
      <stop offset="1" stop-color="#ffffff" stop-opacity="0.78"/>
    </linearGradient>
    <linearGradient id="blade0" x1="742.5" y1="320.8" x2="627.4" y2="502.0" gradientUnits="userSpaceOnUse">
      <stop offset="0" stop-color="#ffffff" stop-opacity="0.97"/>
      <stop offset="0.4" stop-color="#eaf7ff" stop-opacity="0.8"/>
      <stop offset="0.74" stop-color="#bfe2f6" stop-opacity="0.58"/>
      <stop offset="1" stop-color="#86b8e0" stop-opacity="0.4"/>
    </linearGradient>
    <linearGradient id="blade1" x1="792.8" y1="616.1" x2="578.3" y2="607.0" gradientUnits="userSpaceOnUse">
      <stop offset="0" stop-color="#f6fcff" stop-opacity="0.9"/>
      <stop offset="0.42" stop-color="#d6edfc" stop-opacity="0.68"/>
      <stop offset="0.76" stop-color="#9fcdee" stop-opacity="0.5"/>
      <stop offset="1" stop-color="#6ea6d2" stop-opacity="0.38"/>
    </linearGradient>
    <linearGradient id="blade2" x1="562.3" y1="807.2" x2="462.9" y2="616.9" gradientUnits="userSpaceOnUse">
      <stop offset="0" stop-color="#ffffff" stop-opacity="0.97"/>
      <stop offset="0.4" stop-color="#eaf7ff" stop-opacity="0.8"/>
      <stop offset="0.74" stop-color="#bfe2f6" stop-opacity="0.58"/>
      <stop offset="1" stop-color="#86b8e0" stop-opacity="0.4"/>
    </linearGradient>
    <linearGradient id="blade3" x1="281.5" y1="703.2" x2="396.6" y2="522.0" gradientUnits="userSpaceOnUse">
      <stop offset="0" stop-color="#f6fcff" stop-opacity="0.9"/>
      <stop offset="0.42" stop-color="#d6edfc" stop-opacity="0.68"/>
      <stop offset="0.76" stop-color="#9fcdee" stop-opacity="0.5"/>
      <stop offset="1" stop-color="#6ea6d2" stop-opacity="0.38"/>
    </linearGradient>
    <linearGradient id="blade4" x1="231.2" y1="407.9" x2="445.7" y2="417.0" gradientUnits="userSpaceOnUse">
      <stop offset="0" stop-color="#ffffff" stop-opacity="0.97"/>
      <stop offset="0.4" stop-color="#eaf7ff" stop-opacity="0.8"/>
      <stop offset="0.74" stop-color="#bfe2f6" stop-opacity="0.58"/>
      <stop offset="1" stop-color="#86b8e0" stop-opacity="0.4"/>
    </linearGradient>
    <linearGradient id="blade5" x1="461.7" y1="216.8" x2="561.1" y2="407.1" gradientUnits="userSpaceOnUse">
      <stop offset="0" stop-color="#f6fcff" stop-opacity="0.9"/>
      <stop offset="0.42" stop-color="#d6edfc" stop-opacity="0.68"/>
      <stop offset="0.76" stop-color="#9fcdee" stop-opacity="0.5"/>
      <stop offset="1" stop-color="#6ea6d2" stop-opacity="0.38"/>
    </linearGradient>
    <clipPath id="hexClip">
      <path d="M512.0 140.0 L834.2 326.0 L834.2 698.0 L512.0 884.0 L189.8 698.0 L189.8 326.0 Z"/>
    </clipPath>
  </defs>

  <g>
    <path d="M512.0 140.0 L834.2 326.0 L834.2 698.0 L512.0 884.0 L189.8 698.0 L189.8 326.0 Z" fill="#9ed6f7" opacity="0.16"/>
    <path d="M512.0 140.0 L834.2 326.0 L834.2 698.0 L512.0 884.0 L189.8 698.0 L189.8 326.0 Z" fill="url(#crystalBody)"/>

    <g clip-path="url(#hexClip)">
      <g fill="none" stroke="url(#facetStroke)" stroke-linecap="round" stroke-linejoin="round">
      <path d="M512.0 140.0 L512.0 326.0" stroke-width="6" opacity="0.22"/>
      <path d="M834.2 326.0 L673.1 419.0" stroke-width="6" opacity="0.22"/>
      <path d="M834.2 698.0 L673.1 605.0" stroke-width="6" opacity="0.22"/>
      <path d="M512.0 884.0 L512.0 698.0" stroke-width="6" opacity="0.22"/>
      <path d="M189.8 698.0 L350.9 605.0" stroke-width="6" opacity="0.22"/>
      <path d="M189.8 326.0 L350.9 419.0" stroke-width="6" opacity="0.22"/>
      </g>

      <g opacity="0.92">
        <path d="M512.0 438.0 L552.7 377.8 L627.3 351.5 L719.2 368.5 L806.9 435.4 L866.0 549.2 L598.1 857.4 L684.8 762.9 L717.7 657.6 L702.3 565.4 L652.0 504.4 L581.5 486.7 Z" fill="url(#blade0)"/>
        <g fill="none" stroke="url(#facetStroke)" stroke-linecap="round" stroke-linejoin="round">
        <path d="M552.7 377.8 L652.0 504.4" stroke-width="7" opacity="0.24"/>
        <path d="M652.0 504.4 L627.3 351.5" stroke-width="3" opacity="0.16"/>
        <path d="M627.3 351.5 L702.3 565.4" stroke-width="6" opacity="0.22"/>
        <path d="M702.3 565.4 L719.2 368.5" stroke-width="3" opacity="0.16"/>
        <path d="M719.2 368.5 L717.7 657.6" stroke-width="5" opacity="0.20"/>
        <path d="M717.7 657.6 L806.9 435.4" stroke-width="3" opacity="0.16"/>
        <path d="M806.9 435.4 L684.8 762.9" stroke-width="4" opacity="0.18"/>
        <path d="M684.8 762.9 L866.0 549.2" stroke-width="3" opacity="0.16"/>
        <path d="M866.0 549.2 L598.1 857.4" stroke-width="3" opacity="0.16"/>
        </g>
        <path d="M512.0 438.0 L552.7 377.8 L627.3 351.5 L719.2 368.5 L806.9 435.4 L866.0 549.2" fill="none" stroke="#ffffff" stroke-width="10" stroke-linecap="round" stroke-linejoin="round" opacity="0.85"/>
        <path d="M512.0 438.0 L552.7 377.8 L627.3 351.5 L719.2 368.5 L806.9 435.4 L866.0 549.2" fill="none" stroke="#ffffff" stroke-width="3" stroke-linecap="round" stroke-linejoin="round" opacity="0.95"/>
      </g>
      <g opacity="0.85">
        <path d="M576.1 475.0 L648.6 480.2 L708.7 531.6 L739.9 619.7 L725.8 729.1 L656.8 837.2 L255.9 759.3 L381.1 787.1 L488.7 763.0 L560.9 703.5 L588.6 629.5 L568.7 559.6 Z" fill="url(#blade1)"/>
        <g fill="none" stroke="url(#facetStroke)" stroke-linecap="round" stroke-linejoin="round">
        <path d="M648.6 480.2 L588.6 629.5" stroke-width="7" opacity="0.24"/>
        <path d="M588.6 629.5 L708.7 531.6" stroke-width="3" opacity="0.16"/>
        <path d="M708.7 531.6 L560.9 703.5" stroke-width="6" opacity="0.22"/>
        <path d="M560.9 703.5 L739.9 619.7" stroke-width="3" opacity="0.16"/>
        <path d="M739.9 619.7 L488.7 763.0" stroke-width="5" opacity="0.20"/>
        <path d="M488.7 763.0 L725.8 729.1" stroke-width="3" opacity="0.16"/>
        <path d="M725.8 729.1 L381.1 787.1" stroke-width="4" opacity="0.18"/>
        <path d="M381.1 787.1 L656.8 837.2" stroke-width="3" opacity="0.16"/>
        <path d="M656.8 837.2 L255.9 759.3" stroke-width="3" opacity="0.16"/>
        </g>
        <path d="M576.1 475.0 L648.6 480.2 L708.7 531.6 L739.9 619.7 L725.8 729.1 L656.8 837.2" fill="none" stroke="#ffffff" stroke-width="7" stroke-linecap="round" stroke-linejoin="round" opacity="0.62"/>
        <path d="M576.1 475.0 L648.6 480.2 L708.7 531.6 L739.9 619.7 L725.8 729.1 L656.8 837.2" fill="none" stroke="#ffffff" stroke-width="2" stroke-linecap="round" stroke-linejoin="round" opacity="0.95"/>
      </g>
      <g opacity="0.92">
        <path d="M576.1 549.0 L607.9 614.4 L593.4 692.1 L532.7 763.2 L430.9 805.7 L302.7 800.0 L169.8 413.9 L208.3 536.2 L283.0 617.4 L370.6 650.1 L448.6 637.1 L499.2 584.9 Z" fill="url(#blade2)"/>
        <g fill="none" stroke="url(#facetStroke)" stroke-linecap="round" stroke-linejoin="round">
        <path d="M607.9 614.4 L448.6 637.1" stroke-width="7" opacity="0.24"/>
        <path d="M448.6 637.1 L593.4 692.1" stroke-width="3" opacity="0.16"/>
        <path d="M593.4 692.1 L370.6 650.1" stroke-width="6" opacity="0.22"/>
        <path d="M370.6 650.1 L532.7 763.2" stroke-width="3" opacity="0.16"/>
        <path d="M532.7 763.2 L283.0 617.4" stroke-width="5" opacity="0.20"/>
        <path d="M283.0 617.4 L430.9 805.7" stroke-width="3" opacity="0.16"/>
        <path d="M430.9 805.7 L208.3 536.2" stroke-width="4" opacity="0.18"/>
        <path d="M208.3 536.2 L302.7 800.0" stroke-width="3" opacity="0.16"/>
        <path d="M302.7 800.0 L169.8 413.9" stroke-width="3" opacity="0.16"/>
        </g>
        <path d="M576.1 549.0 L607.9 614.4 L593.4 692.1 L532.7 763.2 L430.9 805.7 L302.7 800.0" fill="none" stroke="#ffffff" stroke-width="10" stroke-linecap="round" stroke-linejoin="round" opacity="0.85"/>
        <path d="M576.1 549.0 L607.9 614.4 L593.4 692.1 L532.7 763.2 L430.9 805.7 L302.7 800.0" fill="none" stroke="#ffffff" stroke-width="3" stroke-linecap="round" stroke-linejoin="round" opacity="0.95"/>
      </g>
      <g opacity="0.85">
        <path d="M512.0 586.0 L471.3 646.2 L396.7 672.5 L304.8 655.5 L217.1 588.6 L158.0 474.8 L425.9 166.6 L339.2 261.1 L306.3 366.4 L321.7 458.6 L372.0 519.6 L442.5 537.3 Z" fill="url(#blade3)"/>
        <g fill="none" stroke="url(#facetStroke)" stroke-linecap="round" stroke-linejoin="round">
        <path d="M471.3 646.2 L372.0 519.6" stroke-width="7" opacity="0.24"/>
        <path d="M372.0 519.6 L396.7 672.5" stroke-width="3" opacity="0.16"/>
        <path d="M396.7 672.5 L321.7 458.6" stroke-width="6" opacity="0.22"/>
        <path d="M321.7 458.6 L304.8 655.5" stroke-width="3" opacity="0.16"/>
        <path d="M304.8 655.5 L306.3 366.4" stroke-width="5" opacity="0.20"/>
        <path d="M306.3 366.4 L217.1 588.6" stroke-width="3" opacity="0.16"/>
        <path d="M217.1 588.6 L339.2 261.1" stroke-width="4" opacity="0.18"/>
        <path d="M339.2 261.1 L158.0 474.8" stroke-width="3" opacity="0.16"/>
        <path d="M158.0 474.8 L425.9 166.6" stroke-width="3" opacity="0.16"/>
        </g>
        <path d="M512.0 586.0 L471.3 646.2 L396.7 672.5 L304.8 655.5 L217.1 588.6 L158.0 474.8" fill="none" stroke="#ffffff" stroke-width="7" stroke-linecap="round" stroke-linejoin="round" opacity="0.62"/>
        <path d="M512.0 586.0 L471.3 646.2 L396.7 672.5 L304.8 655.5 L217.1 588.6 L158.0 474.8" fill="none" stroke="#ffffff" stroke-width="2" stroke-linecap="round" stroke-linejoin="round" opacity="0.95"/>
      </g>
      <g opacity="0.92">
        <path d="M447.9 549.0 L375.4 543.8 L315.3 492.4 L284.1 404.3 L298.2 294.9 L367.2 186.8 L768.1 264.7 L642.9 236.9 L535.3 261.0 L463.1 320.5 L435.4 394.5 L455.3 464.4 Z" fill="url(#blade4)"/>
        <g fill="none" stroke="url(#facetStroke)" stroke-linecap="round" stroke-linejoin="round">
        <path d="M375.4 543.8 L435.4 394.5" stroke-width="7" opacity="0.24"/>
        <path d="M435.4 394.5 L315.3 492.4" stroke-width="3" opacity="0.16"/>
        <path d="M315.3 492.4 L463.1 320.5" stroke-width="6" opacity="0.22"/>
        <path d="M463.1 320.5 L284.1 404.3" stroke-width="3" opacity="0.16"/>
        <path d="M284.1 404.3 L535.3 261.0" stroke-width="5" opacity="0.20"/>
        <path d="M535.3 261.0 L298.2 294.9" stroke-width="3" opacity="0.16"/>
        <path d="M298.2 294.9 L642.9 236.9" stroke-width="4" opacity="0.18"/>
        <path d="M642.9 236.9 L367.2 186.8" stroke-width="3" opacity="0.16"/>
        <path d="M367.2 186.8 L768.1 264.7" stroke-width="3" opacity="0.16"/>
        </g>
        <path d="M447.9 549.0 L375.4 543.8 L315.3 492.4 L284.1 404.3 L298.2 294.9 L367.2 186.8" fill="none" stroke="#ffffff" stroke-width="10" stroke-linecap="round" stroke-linejoin="round" opacity="0.85"/>
        <path d="M447.9 549.0 L375.4 543.8 L315.3 492.4 L284.1 404.3 L298.2 294.9 L367.2 186.8" fill="none" stroke="#ffffff" stroke-width="3" stroke-linecap="round" stroke-linejoin="round" opacity="0.95"/>
      </g>
      <g opacity="0.85">
        <path d="M447.9 475.0 L416.1 409.6 L430.6 331.9 L491.3 260.8 L593.1 218.3 L721.3 224.0 L854.2 610.1 L815.7 487.8 L741.0 406.6 L653.4 373.9 L575.4 386.9 L524.8 439.1 Z" fill="url(#blade5)"/>
        <g fill="none" stroke="url(#facetStroke)" stroke-linecap="round" stroke-linejoin="round">
        <path d="M416.1 409.6 L575.4 386.9" stroke-width="7" opacity="0.24"/>
        <path d="M575.4 386.9 L430.6 331.9" stroke-width="3" opacity="0.16"/>
        <path d="M430.6 331.9 L653.4 373.9" stroke-width="6" opacity="0.22"/>
        <path d="M653.4 373.9 L491.3 260.8" stroke-width="3" opacity="0.16"/>
        <path d="M491.3 260.8 L741.0 406.6" stroke-width="5" opacity="0.20"/>
        <path d="M741.0 406.6 L593.1 218.3" stroke-width="3" opacity="0.16"/>
        <path d="M593.1 218.3 L815.7 487.8" stroke-width="4" opacity="0.18"/>
        <path d="M815.7 487.8 L721.3 224.0" stroke-width="3" opacity="0.16"/>
        <path d="M721.3 224.0 L854.2 610.1" stroke-width="3" opacity="0.16"/>
        </g>
        <path d="M447.9 475.0 L416.1 409.6 L430.6 331.9 L491.3 260.8 L593.1 218.3 L721.3 224.0" fill="none" stroke="#ffffff" stroke-width="7" stroke-linecap="round" stroke-linejoin="round" opacity="0.62"/>
        <path d="M447.9 475.0 L416.1 409.6 L430.6 331.9 L491.3 260.8 L593.1 218.3 L721.3 224.0" fill="none" stroke="#ffffff" stroke-width="2" stroke-linecap="round" stroke-linejoin="round" opacity="0.95"/>
      </g>

      <g fill="#ffffff" opacity="0.8">
        <circle cx="436.5" cy="361.2" r="3"/>
        <circle cx="729.2" cy="405.7" r="5"/>
        <circle cx="240.5" cy="667.5" r="4"/>
        <circle cx="728.2" cy="460.1" r="3"/>
        <circle cx="526.3" cy="267.7" r="3"/>
        <circle cx="587.9" cy="656.8" r="4"/>
        <circle cx="341.1" cy="695.5" r="3"/>
        <circle cx="321.4" cy="612.3" r="4"/>
        <circle cx="802.2" cy="424.5" r="5"/>
      </g>
    </g>

    <path d="M549.7 446.6 L587.5 512.0 L549.7 577.4 L474.3 577.4 L436.5 512.0 L474.3 446.6 Z" fill="url(#hollow)"/>
    <path d="M549.7 446.6 L587.5 512.0 L549.7 577.4 L474.3 577.4 L436.5 512.0 L474.3 446.6 Z" fill="none" stroke="#ffffff" stroke-width="4" opacity="0.55" stroke-linejoin="round"/>

    <path d="M512.0 140.0 L834.2 326.0 L834.2 698.0 L512.0 884.0 L189.8 698.0 L189.8 326.0 Z" fill="none" stroke="#ffffff" stroke-width="16" opacity="0.66" stroke-linejoin="round"/>
    <path d="M512.0 140.0 L834.2 326.0 L834.2 698.0 L512.0 884.0 L189.8 698.0 L189.8 326.0 Z" fill="none" stroke="#a7def8" stroke-width="3" opacity="0.5" stroke-linejoin="round"/>

    <g fill="#ffffff" opacity="0.55">
      <circle cx="150" cy="170" r="4"/>
      <circle cx="880" cy="210" r="5"/>
      <circle cx="900" cy="640" r="4"/>
      <circle cx="170" cy="820" r="5"/>
      <circle cx="820" cy="880" r="4"/>
      <circle cx="110" cy="520" r="3"/>
    </g>
  </g>
</svg>
