<svg xmlns="http://www.w3.org/2000/svg" viewBox="0 0 64 64" role="img" aria-label="Aether crystal favicon">
  <defs>
    <radialGradient id="body" cx="34%" cy="22%" r="74%">
      <stop offset="0" stop-color="#ffffff"/>
      <stop offset="0.34" stop-color="#e8f9ff"/>
      <stop offset="0.7" stop-color="#91cff2"/>
      <stop offset="1" stop-color="#4f93c9"/>
    </radialGradient>
    <linearGradient id="sweep" x1="8" y1="10" x2="56" y2="56" gradientUnits="userSpaceOnUse">
      <stop offset="0" stop-color="#ffffff" stop-opacity="0.98"/>
      <stop offset="0.48" stop-color="#dff7ff" stop-opacity="0.84"/>
      <stop offset="1" stop-color="#ffffff" stop-opacity="0.92"/>
    </linearGradient>
    <linearGradient id="edge" x1="12" y1="6" x2="53" y2="60" gradientUnits="userSpaceOnUse">
      <stop offset="0" stop-color="#ffffff"/>
      <stop offset="0.52" stop-color="#9fd9f5"/>
      <stop offset="1" stop-color="#ffffff"/>
    </linearGradient>
    <clipPath id="gemClip">
      <path d="M32 4 53 17 53 46 32 60 11 46 11 17Z"/>
    </clipPath>
  </defs>

  <path d="M32 4 53 17 53 46 32 60 11 46 11 17Z" fill="url(#body)"/>

  <g clip-path="url(#gemClip)">
    <path d="M10 38c12 4 21 0 28-10 5-8 13-12 24-10-5-8-15-13-27-13-16 0-29 11-32 27 2 3 4 5 7 6Z" fill="#143047" opacity="0.16"/>
    <path d="M10 38c12 4 21 0 28-10 5-8 13-12 24-10" fill="none" stroke="#fff" stroke-linecap="round" stroke-width="4.5" opacity="0.78"/>
    <path d="M54 27c-10 0-17 5-23 14-5 8-12 12-22 10 5 7 14 11 24 11 16 0 29-11 32-27-2-5-5-7-11-8Z" fill="url(#sweep)" opacity="0.8"/>
    <path d="M55 28c-9 0-16 5-22 14-6 9-13 13-23 11" fill="none" stroke="#fff" stroke-linecap="round" stroke-width="3.2" opacity="0.62"/>

    <g fill="none" stroke="#ffffff" stroke-linejoin="miter" stroke-opacity="0.34">
      <path d="M32 4 32 60" stroke-width="1.3"/>
      <path d="M11 17 32 31 53 17" stroke-width="1.1"/>
      <path d="M11 46 32 31 53 46" stroke-width="1.1"/>
      <path d="M20 12 26 30 11 46" stroke-width="0.9" opacity="0.7"/>
      <path d="M44 12 38 31 53 46" stroke-width="0.9" opacity="0.7"/>
    </g>
  </g>

  <path d="M32 4 53 17 53 46 32 60 11 46 11 17Z" fill="none" stroke="url(#edge)" stroke-linejoin="miter" stroke-width="2.4"/>
  <path d="M32 7 50 18.5 50 44.5 32 56.5 14 44.5 14 18.5Z" fill="none" stroke="#ffffff" stroke-linejoin="miter" stroke-width="0.9" opacity="0.58"/>
</svg>
