<svg xmlns="http://www.w3.org/2000/svg" viewBox="0 0 1024 1024" role="img" aria-labelledby="title desc">
  <title id="title">Aether crystal mark</title>
  <desc id="desc">A faceted icy hexagonal crystal with a spiraling aperture and dark luminous core.</desc>
  <defs>
    <radialGradient id="crystalBody" cx="42%" cy="30%" r="76%">
      <stop offset="0" stop-color="#ffffff"/>
      <stop offset="0.36" stop-color="#f3fbff" stop-opacity="0.96"/>
      <stop offset="0.68" stop-color="#d4ecfb" stop-opacity="0.82"/>
      <stop offset="1" stop-color="#9ec9ec" stop-opacity="0.5"/>
    </radialGradient>
    <radialGradient id="hole" cx="50%" cy="46%" r="52%">
      <stop offset="0" stop-color="#1f3d5d" stop-opacity="0.72"/>
      <stop offset="0.5" stop-color="#39658f" stop-opacity="0.42"/>
      <stop offset="1" stop-color="#39658f" stop-opacity="0"/>
    </radialGradient>
    <radialGradient id="sheen" cx="50%" cy="50%" r="50%">
      <stop offset="0" stop-color="#ffffff" stop-opacity="0.5"/>
      <stop offset="0.6" stop-color="#ffffff" stop-opacity="0.12"/>
      <stop offset="1" stop-color="#ffffff" stop-opacity="0"/>
    </radialGradient>
    <clipPath id="hexClip">
      <path d="M883.1 537.9 L720.0 203.6 L348.9 177.6 L140.9 486.1 L304.0 820.4 L675.1 846.4 Z"/>
    </clipPath>
  </defs>

  <g>
    <path d="M883.1 537.9 L720.0 203.6 L348.9 177.6 L140.9 486.1 L304.0 820.4 L675.1 846.4 Z" fill="#9ed6f7" opacity="0.14"/>
    <path d="M883.1 537.9 L720.0 203.6 L348.9 177.6 L140.9 486.1 L304.0 820.4 L675.1 846.4 Z" fill="url(#crystalBody)"/>

    <g clip-path="url(#hexClip)">
      <path d="M883.1 537.9 L720.0 203.6 L512.0 512.0 Z" fill="#dceffb" fill-opacity="0.16" stroke="#ffffff" stroke-opacity="0.22" stroke-width="1.2"/>
      <path d="M720.0 203.6 L348.9 177.6 L512.0 512.0 Z" fill="#e2f2fd" fill-opacity="0.16" stroke="#ffffff" stroke-opacity="0.22" stroke-width="1.2"/>
      <path d="M348.9 177.6 L140.9 486.1 L512.0 512.0 Z" fill="#d3eaf9" fill-opacity="0.16" stroke="#ffffff" stroke-opacity="0.22" stroke-width="1.2"/>
      <path d="M140.9 486.1 L304.0 820.4 L512.0 512.0 Z" fill="#bedff4" fill-opacity="0.16" stroke="#ffffff" stroke-opacity="0.22" stroke-width="1.2"/>
      <path d="M304.0 820.4 L675.1 846.4 L512.0 512.0 Z" fill="#b8dbf3" fill-opacity="0.16" stroke="#ffffff" stroke-opacity="0.22" stroke-width="1.2"/>
      <path d="M675.1 846.4 L883.1 537.9 L512.0 512.0 Z" fill="#c6e4f7" fill-opacity="0.16" stroke="#ffffff" stroke-opacity="0.22" stroke-width="1.2"/>

      <path d="M515.9 456.1 L569.5 389.8 L567.5 504.2 Z" fill="#94c5e7" fill-opacity="0.92" stroke="#ffffff" stroke-opacity="0.28" stroke-width="1.3"/>
      <path d="M569.5 389.8 L643.5 542.8 L567.5 504.2 Z" fill="#6c9fcc" fill-opacity="0.82" stroke="#ffffff" stroke-opacity="0.28" stroke-width="1.3"/>
      <path d="M569.5 389.8 L653.7 377.1 L643.5 542.8 Z" fill="#b3d8f1" fill-opacity="0.92" stroke="#ffffff" stroke-opacity="0.28" stroke-width="1.3"/>
      <path d="M653.7 377.1 L673.4 622.5 L643.5 542.8 Z" fill="#7aadd7" fill-opacity="0.82" stroke="#ffffff" stroke-opacity="0.28" stroke-width="1.3"/>
      <path d="M653.7 377.1 L743.8 416.5 L673.4 622.5 Z" fill="#c0e1f5" fill-opacity="0.92" stroke="#ffffff" stroke-opacity="0.28" stroke-width="1.3"/>
      <path d="M743.8 416.5 L653.6 718.9 L673.4 622.5 Z" fill="#88bae0" fill-opacity="0.82" stroke="#ffffff" stroke-opacity="0.28" stroke-width="1.3"/>
      <path d="M743.8 416.5 L814.4 505.7 L653.6 718.9 Z" fill="#cae6f7" fill-opacity="0.92" stroke="#ffffff" stroke-opacity="0.28" stroke-width="1.3"/>
      <path d="M814.4 505.7 L581.1 806.5 L653.6 718.9 Z" fill="#8ebfe4" fill-opacity="0.82" stroke="#ffffff" stroke-opacity="0.28" stroke-width="1.3"/>
      <path d="M814.4 505.7 L842.8 632.4 L581.1 806.5 Z" fill="#d0e9f9" fill-opacity="0.92" stroke="#ffffff" stroke-opacity="0.28" stroke-width="1.3"/>
      <path d="M842.8 632.4 L463.0 860.6 L581.1 806.5 Z" fill="#91c2e5" fill-opacity="0.82" stroke="#ffffff" stroke-opacity="0.28" stroke-width="1.3"/>
      <path d="M465.6 480.7 L434.9 401.1 L533.0 460.1 Z" fill="#90c1e5" fill-opacity="0.92" stroke="#ffffff" stroke-opacity="0.28" stroke-width="1.3"/>
      <path d="M434.9 401.1 L604.5 413.5 L533.0 460.1 Z" fill="#6a9ecb" fill-opacity="0.82" stroke="#ffffff" stroke-opacity="0.28" stroke-width="1.3"/>
      <path d="M434.9 401.1 L466.0 321.9 L604.5 413.5 Z" fill="#a9d2ef" fill-opacity="0.92" stroke="#ffffff" stroke-opacity="0.28" stroke-width="1.3"/>
      <path d="M466.0 321.9 L688.4 427.5 L604.5 413.5 Z" fill="#81b3db" fill-opacity="0.82" stroke="#ffffff" stroke-opacity="0.28" stroke-width="1.3"/>
      <path d="M466.0 321.9 L545.2 263.5 L688.4 427.5 Z" fill="#c7e4f7" fill-opacity="0.92" stroke="#ffffff" stroke-opacity="0.28" stroke-width="1.3"/>
      <path d="M545.2 263.5 L762.0 492.8 L688.4 427.5 Z" fill="#89bae0" fill-opacity="0.82" stroke="#ffffff" stroke-opacity="0.28" stroke-width="1.3"/>
      <path d="M545.2 263.5 L657.7 246.9 L762.0 492.8 Z" fill="#ddeffc" fill-opacity="0.92" stroke="#ffffff" stroke-opacity="0.28" stroke-width="1.3"/>
      <path d="M657.7 246.9 L801.6 599.4 L762.0 492.8 Z" fill="#9bcaeb" fill-opacity="0.82" stroke="#ffffff" stroke-opacity="0.28" stroke-width="1.3"/>
      <path d="M657.7 246.9 L781.6 285.7 L801.6 599.4 Z" fill="#dceffb" fill-opacity="0.92" stroke="#ffffff" stroke-opacity="0.28" stroke-width="1.3"/>
      <path d="M781.6 285.7 L789.4 728.7 L801.6 599.4 Z" fill="#98c8ea" fill-opacity="0.82" stroke="#ffffff" stroke-opacity="0.28" stroke-width="1.3"/>
      <path d="M461.7 536.5 L377.4 523.3 L477.5 467.9 Z" fill="#8ebfe4" fill-opacity="0.92" stroke="#ffffff" stroke-opacity="0.28" stroke-width="1.3"/>
      <path d="M377.4 523.3 L473.0 382.7 L477.5 467.9 Z" fill="#679ac7" fill-opacity="0.82" stroke="#ffffff" stroke-opacity="0.28" stroke-width="1.3"/>
      <path d="M377.4 523.3 L324.3 456.8 L473.0 382.7 Z" fill="#aad3ef" fill-opacity="0.92" stroke="#ffffff" stroke-opacity="0.28" stroke-width="1.3"/>
      <path d="M324.3 456.8 L527.0 316.9 L473.0 382.7 Z" fill="#78acd5" fill-opacity="0.82" stroke="#ffffff" stroke-opacity="0.28" stroke-width="1.3"/>
      <path d="M324.3 456.8 L313.4 359.0 L527.0 316.9 Z" fill="#bddef4" fill-opacity="0.92" stroke="#ffffff" stroke-opacity="0.28" stroke-width="1.3"/>
      <path d="M313.4 359.0 L620.3 285.9 L527.0 316.9 Z" fill="#8bbde2" fill-opacity="0.82" stroke="#ffffff" stroke-opacity="0.28" stroke-width="1.3"/>
      <path d="M313.4 359.0 L355.3 253.2 L620.3 285.9 Z" fill="#cfe8f8" fill-opacity="0.92" stroke="#ffffff" stroke-opacity="0.28" stroke-width="1.3"/>
      <path d="M355.3 253.2 L732.5 304.9 L620.3 285.9 Z" fill="#9ac9ea" fill-opacity="0.82" stroke="#ffffff" stroke-opacity="0.28" stroke-width="1.3"/>
      <path d="M355.3 253.2 L450.9 165.3 L732.5 304.9 Z" fill="#dceffb" fill-opacity="0.92" stroke="#ffffff" stroke-opacity="0.28" stroke-width="1.3"/>
      <path d="M450.9 165.3 L838.4 380.1 L732.5 304.9 Z" fill="#a3cfed" fill-opacity="0.82" stroke="#ffffff" stroke-opacity="0.28" stroke-width="1.3"/>
      <path d="M508.1 567.9 L454.5 634.2 L456.5 519.8 Z" fill="#90c1e5" fill-opacity="0.92" stroke="#ffffff" stroke-opacity="0.28" stroke-width="1.3"/>
      <path d="M454.5 634.2 L380.5 481.2 L456.5 519.8 Z" fill="#699dca" fill-opacity="0.82" stroke="#ffffff" stroke-opacity="0.28" stroke-width="1.3"/>
      <path d="M454.5 634.2 L370.3 646.9 L380.5 481.2 Z" fill="#a5d0ed" fill-opacity="0.92" stroke="#ffffff" stroke-opacity="0.28" stroke-width="1.3"/>
      <path d="M370.3 646.9 L350.6 401.5 L380.5 481.2 Z" fill="#79add6" fill-opacity="0.82" stroke="#ffffff" stroke-opacity="0.28" stroke-width="1.3"/>
      <path d="M370.3 646.9 L280.2 607.5 L350.6 401.5 Z" fill="#b8dcf3" fill-opacity="0.92" stroke="#ffffff" stroke-opacity="0.28" stroke-width="1.3"/>
      <path d="M280.2 607.5 L370.4 305.1 L350.6 401.5 Z" fill="#87b8df" fill-opacity="0.82" stroke="#ffffff" stroke-opacity="0.28" stroke-width="1.3"/>
      <path d="M280.2 607.5 L209.6 518.3 L370.4 305.1 Z" fill="#d2eaf9" fill-opacity="0.92" stroke="#ffffff" stroke-opacity="0.28" stroke-width="1.3"/>
      <path d="M209.6 518.3 L442.9 217.5 L370.4 305.1 Z" fill="#9bcaea" fill-opacity="0.82" stroke="#ffffff" stroke-opacity="0.28" stroke-width="1.3"/>
      <path d="M209.6 518.3 L181.2 391.6 L442.9 217.5 Z" fill="#d9edfb" fill-opacity="0.92" stroke="#ffffff" stroke-opacity="0.28" stroke-width="1.3"/>
      <path d="M181.2 391.6 L561.0 163.4 L442.9 217.5 Z" fill="#9fccec" fill-opacity="0.82" stroke="#ffffff" stroke-opacity="0.28" stroke-width="1.3"/>
      <path d="M558.4 543.3 L589.1 622.9 L491.0 563.9 Z" fill="#8fc0e4" fill-opacity="0.92" stroke="#ffffff" stroke-opacity="0.28" stroke-width="1.3"/>
      <path d="M589.1 622.9 L419.5 610.5 L491.0 563.9 Z" fill="#6598c6" fill-opacity="0.82" stroke="#ffffff" stroke-opacity="0.28" stroke-width="1.3"/>
      <path d="M589.1 622.9 L558.0 702.1 L419.5 610.5 Z" fill="#a1ceec" fill-opacity="0.92" stroke="#ffffff" stroke-opacity="0.28" stroke-width="1.3"/>
      <path d="M558.0 702.1 L335.6 596.5 L419.5 610.5 Z" fill="#71a5d0" fill-opacity="0.82" stroke="#ffffff" stroke-opacity="0.28" stroke-width="1.3"/>
      <path d="M558.0 702.1 L478.8 760.5 L335.6 596.5 Z" fill="#b8dcf3" fill-opacity="0.92" stroke="#ffffff" stroke-opacity="0.28" stroke-width="1.3"/>
      <path d="M478.8 760.5 L262.0 531.2 L335.6 596.5 Z" fill="#82b4dc" fill-opacity="0.82" stroke="#ffffff" stroke-opacity="0.28" stroke-width="1.3"/>
      <path d="M478.8 760.5 L366.3 777.1 L262.0 531.2 Z" fill="#c8e5f7" fill-opacity="0.92" stroke="#ffffff" stroke-opacity="0.28" stroke-width="1.3"/>
      <path d="M366.3 777.1 L222.4 424.6 L262.0 531.2 Z" fill="#8dbee3" fill-opacity="0.82" stroke="#ffffff" stroke-opacity="0.28" stroke-width="1.3"/>
      <path d="M366.3 777.1 L242.4 738.3 L222.4 424.6 Z" fill="#cfe8f8" fill-opacity="0.92" stroke="#ffffff" stroke-opacity="0.28" stroke-width="1.3"/>
      <path d="M242.4 738.3 L234.6 295.3 L222.4 424.6 Z" fill="#97c7e9" fill-opacity="0.82" stroke="#ffffff" stroke-opacity="0.28" stroke-width="1.3"/>
      <path d="M562.3 487.5 L646.6 500.7 L546.5 556.1 Z" fill="#8ebfe4" fill-opacity="0.92" stroke="#ffffff" stroke-opacity="0.28" stroke-width="1.3"/>
      <path d="M646.6 500.7 L551.0 641.3 L546.5 556.1 Z" fill="#679ac7" fill-opacity="0.82" stroke="#ffffff" stroke-opacity="0.28" stroke-width="1.3"/>
      <path d="M646.6 500.7 L699.7 567.2 L551.0 641.3 Z" fill="#add5f0" fill-opacity="0.92" stroke="#ffffff" stroke-opacity="0.28" stroke-width="1.3"/>
      <path d="M699.7 567.2 L497.0 707.1 L551.0 641.3 Z" fill="#76a9d4" fill-opacity="0.82" stroke="#ffffff" stroke-opacity="0.28" stroke-width="1.3"/>
      <path d="M699.7 567.2 L710.6 665.0 L497.0 707.1 Z" fill="#bfe0f5" fill-opacity="0.92" stroke="#ffffff" stroke-opacity="0.28" stroke-width="1.3"/>
      <path d="M710.6 665.0 L403.7 738.1 L497.0 707.1 Z" fill="#81b4db" fill-opacity="0.82" stroke="#ffffff" stroke-opacity="0.28" stroke-width="1.3"/>
      <path d="M710.6 665.0 L668.7 770.8 L403.7 738.1 Z" fill="#c0e0f5" fill-opacity="0.92" stroke="#ffffff" stroke-opacity="0.28" stroke-width="1.3"/>
      <path d="M668.7 770.8 L291.5 719.1 L403.7 738.1 Z" fill="#8bbde2" fill-opacity="0.82" stroke="#ffffff" stroke-opacity="0.28" stroke-width="1.3"/>
      <path d="M668.7 770.8 L573.1 858.7 L291.5 719.1 Z" fill="#cae6f7" fill-opacity="0.92" stroke="#ffffff" stroke-opacity="0.28" stroke-width="1.3"/>
      <path d="M573.1 858.7 L185.6 643.9 L291.5 719.1 Z" fill="#8abce1" fill-opacity="0.82" stroke="#ffffff" stroke-opacity="0.28" stroke-width="1.3"/>

      <ellipse cx="408" cy="356" rx="270" ry="215" fill="url(#sheen)" transform="rotate(-18 408 356)"/>

      <circle cx="512.0" cy="512.0" r="64.0" fill="url(#hole)"/>

      <path d="M515.9 456.1 L569.5 389.8 L653.7 377.1 L743.8 416.5 L814.4 505.7 L842.8 632.4" fill="none" stroke="#ffffff" stroke-width="6" stroke-linecap="butt" stroke-linejoin="round" opacity="0.4"/>
      <path d="M515.9 456.1 L569.5 389.8 L653.7 377.1 L743.8 416.5 L814.4 505.7 L842.8 632.4" fill="none" stroke="#ffffff" stroke-width="2.6" stroke-linecap="butt" stroke-linejoin="round" opacity="0.92"/>
      <path d="M465.6 480.7 L434.9 401.1 L466.0 321.9 L545.2 263.5 L657.7 246.9 L781.6 285.7" fill="none" stroke="#ffffff" stroke-width="6" stroke-linecap="butt" stroke-linejoin="round" opacity="0.4"/>
      <path d="M465.6 480.7 L434.9 401.1 L466.0 321.9 L545.2 263.5 L657.7 246.9 L781.6 285.7" fill="none" stroke="#ffffff" stroke-width="2.6" stroke-linecap="butt" stroke-linejoin="round" opacity="0.92"/>
      <path d="M461.7 536.5 L377.4 523.3 L324.3 456.8 L313.4 359.0 L355.3 253.2 L450.9 165.3" fill="none" stroke="#ffffff" stroke-width="6" stroke-linecap="butt" stroke-linejoin="round" opacity="0.4"/>
      <path d="M461.7 536.5 L377.4 523.3 L324.3 456.8 L313.4 359.0 L355.3 253.2 L450.9 165.3" fill="none" stroke="#ffffff" stroke-width="2.6" stroke-linecap="butt" stroke-linejoin="round" opacity="0.92"/>
      <path d="M508.1 567.9 L454.5 634.2 L370.3 646.9 L280.2 607.5 L209.6 518.3 L181.2 391.6" fill="none" stroke="#ffffff" stroke-width="6" stroke-linecap="butt" stroke-linejoin="round" opacity="0.4"/>
      <path d="M508.1 567.9 L454.5 634.2 L370.3 646.9 L280.2 607.5 L209.6 518.3 L181.2 391.6" fill="none" stroke="#ffffff" stroke-width="2.6" stroke-linecap="butt" stroke-linejoin="round" opacity="0.92"/>
      <path d="M558.4 543.3 L589.1 622.9 L558.0 702.1 L478.8 760.5 L366.3 777.1 L242.4 738.3" fill="none" stroke="#ffffff" stroke-width="6" stroke-linecap="butt" stroke-linejoin="round" opacity="0.4"/>
      <path d="M558.4 543.3 L589.1 622.9 L558.0 702.1 L478.8 760.5 L366.3 777.1 L242.4 738.3" fill="none" stroke="#ffffff" stroke-width="2.6" stroke-linecap="butt" stroke-linejoin="round" opacity="0.92"/>
      <path d="M562.3 487.5 L646.6 500.7 L699.7 567.2 L710.6 665.0 L668.7 770.8 L573.1 858.7" fill="none" stroke="#ffffff" stroke-width="6" stroke-linecap="butt" stroke-linejoin="round" opacity="0.4"/>
      <path d="M562.3 487.5 L646.6 500.7 L699.7 567.2 L710.6 665.0 L668.7 770.8 L573.1 858.7" fill="none" stroke="#ffffff" stroke-width="2.6" stroke-linecap="butt" stroke-linejoin="round" opacity="0.92"/>

      <g fill="#ffffff" opacity="0.82">
        <circle cx="444.0" cy="348.4" r="3"/>
        <circle cx="740.4" cy="419.4" r="5"/>
        <circle cx="229.5" cy="648.6" r="4"/>
        <circle cx="736.9" cy="474.4" r="3"/>
        <circle cx="543.9" cy="264.9" r="3"/>
        <circle cx="581.2" cy="669.8" r="4"/>
        <circle cx="325.6" cy="686.0" r="3"/>
        <circle cx="309.4" cy="601.2" r="4"/>
      </g>
    </g>

    <path d="M883.1 537.9 L720.0 203.6 L348.9 177.6 L140.9 486.1 L304.0 820.4 L675.1 846.4 Z" fill="none" stroke="#ffffff" stroke-width="15" opacity="0.66" stroke-linejoin="round"/>
    <path d="M883.1 537.9 L720.0 203.6 L348.9 177.6 L140.9 486.1 L304.0 820.4 L675.1 846.4 Z" fill="none" stroke="#a7def8" stroke-width="3" opacity="0.5" stroke-linejoin="round"/>

    <g fill="#ffffff" opacity="0.5">
      <circle cx="150" cy="170" r="4"/>
      <circle cx="880" cy="210" r="5"/>
      <circle cx="900" cy="640" r="4"/>
      <circle cx="170" cy="820" r="5"/>
      <circle cx="820" cy="880" r="4"/>
      <circle cx="110" cy="520" r="3"/>
    </g>
  </g>
</svg>
