<svg xmlns="http://www.w3.org/2000/svg" viewBox="0 0 64 64" role="img" aria-label="Aether">
  <defs>
    <radialGradient id="body" cx="34%" cy="24%" r="68%">
      <stop offset="0" stop-color="#ffffff"/>
      <stop offset="0.42" stop-color="#dff7ff"/>
      <stop offset="1" stop-color="#6ba9dd"/>
    </radialGradient>
    <linearGradient id="swirl" x1="14" y1="12" x2="52" y2="52" gradientUnits="userSpaceOnUse">
      <stop offset="0" stop-color="#ffffff"/>
      <stop offset="0.52" stop-color="#7ac8ee"/>
      <stop offset="1" stop-color="#ffffff"/>
    </linearGradient>
  </defs>
  <circle cx="32" cy="32" r="25" fill="url(#body)"/>
  <path d="M13 36c11 3 19-1 25-10 5-8 12-12 22-10-5-7-14-11-25-11-15 0-27 10-30 24 2 4 4 6 8 7Z" fill="#1c2c3d" opacity="0.16"/>
  <path d="M13 36c11 3 19-1 25-10 5-8 12-12 22-10" fill="none" stroke="#fff" stroke-linecap="round" stroke-width="4.8" opacity="0.8"/>
  <path d="M51 27c-9 1-15 6-20 14-5 8-11 11-20 9 5 7 13 10 22 10 15 0 27-10 30-24-2-4-5-7-12-9Z" fill="url(#swirl)" opacity="0.82"/>
  <circle cx="32" cy="32" r="25" fill="none" stroke="#fff" stroke-width="2.8" opacity="0.88"/>
  <path d="M45 41v7M41.5 44.5h7" stroke="#fff" stroke-linecap="round" stroke-width="2.2"/>
</svg>
