<svg xmlns="http://www.w3.org/2000/svg" viewBox="0 0 1024 1024" role="img" aria-labelledby="title desc">
  <title id="title">Aether crystalline orb mark</title>
  <desc id="desc">A transparent icy glass orb with a luminous spiral core and crystalline facets.</desc>
  <defs>
    <radialGradient id="orbBody" cx="37%" cy="25%" r="70%">
      <stop offset="0" stop-color="#ffffff"/>
      <stop offset="0.22" stop-color="#f5fcff" stop-opacity="0.98"/>
      <stop offset="0.48" stop-color="#c8e8fb" stop-opacity="0.84"/>
      <stop offset="0.75" stop-color="#6da9dd" stop-opacity="0.55"/>
      <stop offset="1" stop-color="#24496e" stop-opacity="0.28"/>
    </radialGradient>
    <radialGradient id="innerLight" cx="47%" cy="45%" r="52%">
      <stop offset="0" stop-color="#ffffff" stop-opacity="0.92"/>
      <stop offset="0.38" stop-color="#dff7ff" stop-opacity="0.62"/>
      <stop offset="1" stop-color="#86c5ee" stop-opacity="0"/>
    </radialGradient>
    <linearGradient id="sweepA" x1="216" y1="214" x2="789" y2="778" gradientUnits="userSpaceOnUse">
      <stop offset="0" stop-color="#ffffff" stop-opacity="0.92"/>
      <stop offset="0.28" stop-color="#dff7ff" stop-opacity="0.74"/>
      <stop offset="0.58" stop-color="#7fbde9" stop-opacity="0.52"/>
      <stop offset="1" stop-color="#ffffff" stop-opacity="0.9"/>
    </linearGradient>
    <linearGradient id="sweepB" x1="781" y1="205" x2="257" y2="794" gradientUnits="userSpaceOnUse">
      <stop offset="0" stop-color="#eefbff" stop-opacity="0.48"/>
      <stop offset="0.34" stop-color="#89cff4" stop-opacity="0.32"/>
      <stop offset="0.72" stop-color="#ffffff" stop-opacity="0.82"/>
      <stop offset="1" stop-color="#b4e9fb" stop-opacity="0.42"/>
    </linearGradient>
    <linearGradient id="facetStroke" x1="218" y1="190" x2="812" y2="817" gradientUnits="userSpaceOnUse">
      <stop offset="0" stop-color="#ffffff" stop-opacity="0.92"/>
      <stop offset="0.45" stop-color="#9bd3f3" stop-opacity="0.58"/>
      <stop offset="1" stop-color="#ffffff" stop-opacity="0.78"/>
    </linearGradient>
    <clipPath id="orbClip">
      <circle cx="512" cy="512" r="372"/>
    </clipPath>
  </defs>

  <g>
    <circle cx="512" cy="512" r="356" fill="#9ed6f7" opacity="0.2"/>
    <circle cx="512" cy="512" r="372" fill="url(#orbBody)"/>
    <circle cx="512" cy="512" r="326" fill="url(#innerLight)" opacity="0.9"/>

    <g clip-path="url(#orbClip)">
      <path
        d="M216 595c88 47 185 32 275-44 87-74 169-188 310-166-38-95-137-163-253-163-176 0-319 126-332 373Z"
        fill="url(#sweepB)"
        opacity="0.6"
      />
      <path
        d="M217 584c137 28 238-15 317-130 77-112 167-164 275-151-60-75-158-123-273-123-194 0-352 150-356 335 10 30 22 54 37 69Z"
        fill="none"
        stroke="#ffffff"
        stroke-linecap="round"
        stroke-width="34"
        opacity="0.72"
      />
      <path
        d="M800 430c-130-27-227 17-305 128-78 112-172 165-291 146 59 88 166 146 288 146 197 0 357-152 361-338-12-35-30-64-53-82Z"
        fill="url(#sweepA)"
        opacity="0.82"
      />
      <path
        d="M798 430c-111-4-192 48-256 155-75 126-165 177-300 149 67 74 164 116 269 116 190 0 345-145 358-329-15-39-38-70-71-91Z"
        fill="none"
        stroke="#f8fdff"
        stroke-linecap="round"
        stroke-width="24"
        opacity="0.64"
      />

      <g fill="none" stroke="url(#facetStroke)" stroke-linecap="round" stroke-linejoin="round">
        <path d="M214 461 349 252 518 190 700 240 837 397" stroke-width="10" opacity="0.44"/>
        <path d="M184 568 312 684 496 838 712 764 851 560" stroke-width="9" opacity="0.34"/>
        <path d="M349 252 448 447 312 684" stroke-width="8" opacity="0.3"/>
        <path d="M700 240 596 454 712 764" stroke-width="8" opacity="0.3"/>
        <path d="M235 385 448 447 596 454 821 386" stroke-width="7" opacity="0.28"/>
      </g>

      <g fill="#ffffff" opacity="0.8">
        <circle cx="330" cy="325" r="6"/>
        <circle cx="426" cy="246" r="4"/>
        <circle cx="711" cy="341" r="5"/>
        <circle cx="759" cy="593" r="4"/>
        <circle cx="371" cy="705" r="5"/>
        <circle cx="553" cy="777" r="3"/>
      </g>
      <g fill="none" stroke="#ffffff" stroke-linecap="round" opacity="0.78">
        <path d="M706 651v54M679 678h54" stroke-width="8"/>
        <path d="M379 403v34M362 420h34" stroke-width="6"/>
        <path d="M619 295v25M606 308h26" stroke-width="5"/>
      </g>
    </g>

    <circle cx="512" cy="512" r="372" fill="none" stroke="#ffffff" stroke-width="16" opacity="0.64"/>
    <circle cx="512" cy="512" r="344" fill="none" stroke="#a7def8" stroke-width="3" opacity="0.52"/>
    <path
      d="M255 409c48-112 156-180 286-180 60 0 112 14 158 38"
      fill="none"
      stroke="#ffffff"
      stroke-linecap="round"
      stroke-width="18"
      opacity="0.54"
    />
    <path
      d="M723 770c-54 40-124 64-205 64-88 0-166-28-226-76"
      fill="none"
      stroke="#ffffff"
      stroke-linecap="round"
      stroke-width="12"
      opacity="0.34"
    />
  </g>
</svg>
